<mxfile host="Electron" agent="Mozilla/5.0 (Windows NT 10.0; Win64; x64) AppleWebKit/537.36 (KHTML, like Gecko) draw.io/28.1.2 Chrome/138.0.7204.243 Electron/37.4.0 Safari/537.36" version="28.1.2">
  <diagram name="Seite-1" id="sPEK_S9THQ4yoqJDo_Il">
    <mxGraphModel dx="1036" dy="832" grid="1" gridSize="10" guides="1" tooltips="1" connect="1" arrows="1" fold="1" page="1" pageScale="1" pageWidth="827" pageHeight="1169" math="0" shadow="0">
      <root>
        <mxCell id="0" />
        <mxCell id="1" parent="0" />
        <mxCell id="ZJTCTvH1HSgJe5c6qLCJ-3" style="edgeStyle=orthogonalEdgeStyle;rounded=0;orthogonalLoop=1;jettySize=auto;html=1;" edge="1" parent="1" source="ZJTCTvH1HSgJe5c6qLCJ-2" target="ZJTCTvH1HSgJe5c6qLCJ-5">
          <mxGeometry relative="1" as="geometry">
            <mxPoint x="360" y="160" as="targetPoint" />
          </mxGeometry>
        </mxCell>
        <mxCell id="ZJTCTvH1HSgJe5c6qLCJ-2" value="Start" style="ellipse;whiteSpace=wrap;html=1;aspect=fixed;" vertex="1" parent="1">
          <mxGeometry x="320" y="40" width="80" height="80" as="geometry" />
        </mxCell>
        <mxCell id="ZJTCTvH1HSgJe5c6qLCJ-6" style="edgeStyle=orthogonalEdgeStyle;rounded=0;orthogonalLoop=1;jettySize=auto;html=1;" edge="1" parent="1" source="ZJTCTvH1HSgJe5c6qLCJ-5" target="ZJTCTvH1HSgJe5c6qLCJ-7">
          <mxGeometry relative="1" as="geometry">
            <mxPoint x="360" y="320" as="targetPoint" />
          </mxGeometry>
        </mxCell>
        <mxCell id="ZJTCTvH1HSgJe5c6qLCJ-5" value="Print: Kannst du lesen?" style="rounded=1;whiteSpace=wrap;html=1;" vertex="1" parent="1">
          <mxGeometry x="300" y="180" width="120" height="60" as="geometry" />
        </mxCell>
        <mxCell id="ZJTCTvH1HSgJe5c6qLCJ-8" style="edgeStyle=orthogonalEdgeStyle;rounded=0;orthogonalLoop=1;jettySize=auto;html=1;" edge="1" parent="1" source="ZJTCTvH1HSgJe5c6qLCJ-7" target="ZJTCTvH1HSgJe5c6qLCJ-9">
          <mxGeometry relative="1" as="geometry">
            <mxPoint x="360" y="430" as="targetPoint" />
          </mxGeometry>
        </mxCell>
        <mxCell id="ZJTCTvH1HSgJe5c6qLCJ-7" value="Input: Ja / Nein" style="shape=parallelogram;perimeter=parallelogramPerimeter;whiteSpace=wrap;html=1;fixedSize=1;" vertex="1" parent="1">
          <mxGeometry x="300" y="290" width="120" height="60" as="geometry" />
        </mxCell>
        <mxCell id="ZJTCTvH1HSgJe5c6qLCJ-10" style="edgeStyle=orthogonalEdgeStyle;rounded=0;orthogonalLoop=1;jettySize=auto;html=1;" edge="1" parent="1" source="ZJTCTvH1HSgJe5c6qLCJ-9" target="ZJTCTvH1HSgJe5c6qLCJ-11">
          <mxGeometry relative="1" as="geometry">
            <mxPoint x="470" y="430" as="targetPoint" />
          </mxGeometry>
        </mxCell>
        <mxCell id="ZJTCTvH1HSgJe5c6qLCJ-17" value="Nein" style="edgeLabel;html=1;align=center;verticalAlign=middle;resizable=0;points=[];" vertex="1" connectable="0" parent="ZJTCTvH1HSgJe5c6qLCJ-10">
          <mxGeometry x="-0.1" y="1" relative="1" as="geometry">
            <mxPoint as="offset" />
          </mxGeometry>
        </mxCell>
        <mxCell id="ZJTCTvH1HSgJe5c6qLCJ-12" style="edgeStyle=orthogonalEdgeStyle;rounded=0;orthogonalLoop=1;jettySize=auto;html=1;" edge="1" parent="1" source="ZJTCTvH1HSgJe5c6qLCJ-9" target="ZJTCTvH1HSgJe5c6qLCJ-13">
          <mxGeometry relative="1" as="geometry">
            <mxPoint x="360" y="530" as="targetPoint" />
          </mxGeometry>
        </mxCell>
        <mxCell id="ZJTCTvH1HSgJe5c6qLCJ-9" value="Überprüfung" style="rhombus;whiteSpace=wrap;html=1;" vertex="1" parent="1">
          <mxGeometry x="320" y="390" width="80" height="80" as="geometry" />
        </mxCell>
        <mxCell id="ZJTCTvH1HSgJe5c6qLCJ-16" style="edgeStyle=orthogonalEdgeStyle;rounded=0;orthogonalLoop=1;jettySize=auto;html=1;entryX=1;entryY=0.5;entryDx=0;entryDy=0;" edge="1" parent="1" source="ZJTCTvH1HSgJe5c6qLCJ-11" target="ZJTCTvH1HSgJe5c6qLCJ-15">
          <mxGeometry relative="1" as="geometry">
            <Array as="points">
              <mxPoint x="590" y="430" />
              <mxPoint x="590" y="670" />
            </Array>
          </mxGeometry>
        </mxCell>
        <mxCell id="ZJTCTvH1HSgJe5c6qLCJ-11" value="Wieso kannst du darauf dann antworten?" style="rounded=1;whiteSpace=wrap;html=1;" vertex="1" parent="1">
          <mxGeometry x="450" y="400" width="120" height="60" as="geometry" />
        </mxCell>
        <mxCell id="ZJTCTvH1HSgJe5c6qLCJ-14" style="edgeStyle=orthogonalEdgeStyle;rounded=0;orthogonalLoop=1;jettySize=auto;html=1;" edge="1" parent="1" source="ZJTCTvH1HSgJe5c6qLCJ-13" target="ZJTCTvH1HSgJe5c6qLCJ-15">
          <mxGeometry relative="1" as="geometry">
            <mxPoint x="360" y="670" as="targetPoint" />
          </mxGeometry>
        </mxCell>
        <mxCell id="ZJTCTvH1HSgJe5c6qLCJ-18" value="" style="edgeStyle=orthogonalEdgeStyle;rounded=0;orthogonalLoop=1;jettySize=auto;html=1;" edge="1" parent="1" source="ZJTCTvH1HSgJe5c6qLCJ-13" target="ZJTCTvH1HSgJe5c6qLCJ-9">
          <mxGeometry relative="1" as="geometry" />
        </mxCell>
        <mxCell id="ZJTCTvH1HSgJe5c6qLCJ-19" value="Ja" style="edgeLabel;html=1;align=center;verticalAlign=middle;resizable=0;points=[];" vertex="1" connectable="0" parent="ZJTCTvH1HSgJe5c6qLCJ-18">
          <mxGeometry x="0.56" y="-3" relative="1" as="geometry">
            <mxPoint x="-3" y="17" as="offset" />
          </mxGeometry>
        </mxCell>
        <mxCell id="ZJTCTvH1HSgJe5c6qLCJ-13" value="Herzlichen Glückwunsch!" style="rounded=1;whiteSpace=wrap;html=1;" vertex="1" parent="1">
          <mxGeometry x="300" y="530" width="120" height="60" as="geometry" />
        </mxCell>
        <mxCell id="ZJTCTvH1HSgJe5c6qLCJ-15" value="End" style="ellipse;whiteSpace=wrap;html=1;aspect=fixed;" vertex="1" parent="1">
          <mxGeometry x="320" y="630" width="80" height="80" as="geometry" />
        </mxCell>
      </root>
    </mxGraphModel>
  </diagram>
</mxfile>
